<?xml version="1.0" encoding="UTF-8" standalone="no"?>
<!-- Svg Vector Icons : http://www.onlinewebfonts.com/icon -->

<svg
   xmlns:dc="http://purl.org/dc/elements/1.1/"
   xmlns:cc="http://creativecommons.org/ns#"
   xmlns:rdf="http://www.w3.org/1999/02/22-rdf-syntax-ns#"
   xmlns:svg="http://www.w3.org/2000/svg"
   xmlns="http://www.w3.org/2000/svg"
   xmlns:sodipodi="http://sodipodi.sourceforge.net/DTD/sodipodi-0.dtd"
   xmlns:inkscape="http://www.inkscape.org/namespaces/inkscape"
   version="1.1"
   x="0px"
   y="0px"
   viewBox="0 0 1000 1000"
   enable-background="new 0 0 1000 1000"
   xml:space="preserve"
   id="svg12"
   sodipodi:docname="fork.svg"
   inkscape:version="0.92.3 (2405546, 2018-03-11)"><defs
   id="defs16" /><sodipodi:namedview
   pagecolor="#ffffff"
   bordercolor="#666666"
   borderopacity="1"
   objecttolerance="10"
   gridtolerance="10"
   guidetolerance="10"
   inkscape:pageopacity="0"
   inkscape:pageshadow="2"
   inkscape:window-width="1920"
   inkscape:window-height="1013"
   id="namedview14"
   showgrid="false"
   inkscape:zoom="0.236"
   inkscape:cx="500"
   inkscape:cy="500"
   inkscape:window-x="-9"
   inkscape:window-y="-9"
   inkscape:window-maximized="1"
   inkscape:current-layer="svg12" />
<metadata
   id="metadata2"> Svg Vector Icons : http://www.onlinewebfonts.com/icon <rdf:RDF><cc:Work
     rdf:about=""><dc:format>image/svg+xml</dc:format><dc:type
       rdf:resource="http://purl.org/dc/dcmitype/StillImage" /><dc:title></dc:title></cc:Work></rdf:RDF></metadata>
<path
   inkscape:connector-curvature="0"
   id="path4"
   d="m 549.8,10.8 c -2.3,0 -4.5,0 -6.8,0 -4,76.5 -10.4,146.7 -14.4,223.2 0.1,31.5 -38.8,29.1 -39,-0.5 -2.3,-77.9 -4.6,-144.8 -6.9,-222.7 -5,0 -10,0 -15.1,0 -9,91.8 -24,187.1 -14.8,254.9 9.2,67.9 52.8,56.8 65.9,127.4 19.9,107 8.6,243.3 0,292.7 -6.3,36.3 -37.9,241.5 -28.9,272.1 6.7,23.2 34.1,32.3 59.8,32.1 25.6,-0.2 53.4,-7.7 60.2,-32.1 8.5,-30.7 -22.6,-235.8 -28.9,-272.1 -8.6,-49.4 -19.9,-185.7 0,-292.7 C 594,322.6 637.6,333.6 646.8,265.7 656,197.8 641,102.6 632,10.8 c -5,0 -10,0 -15.1,0 -2.3,77.9 -4.6,144.8 -6.9,222.7 -0.2,29.6 -39.1,32.1 -39,0.5 -4,-76.5 -10.4,-146.7 -14.4,-223.2 -2.3,0 -4.5,0 -6.8,0 z" />
</svg>